<?xml version="1.0" standalone="no"?>
<!DOCTYPE svg PUBLIC "-//W3C//DTD SVG 20010904//EN"
 "http://www.w3.org/TR/2001/REC-SVG-20010904/DTD/svg10.dtd">
<svg version="1.0" xmlns="http://www.w3.org/2000/svg"
 width="700.000000pt" height="700.000000pt" viewBox="0 0 700.000000 700.000000"
 preserveAspectRatio="xMidYMid meet">
<metadata>
Created by potrace 1.14, written by Peter Selinger 2001-2017
</metadata>
<g transform="translate(0.000000,700.000000) scale(0.100000,-0.100000)"
fill="#000000" stroke="none">
<path d="M766 5375 c-19 -13 -32 -31 -34 -48 -2 -15 124 -409 303 -949 169
-508 308 -929 309 -935 4 -21 45 -63 63 -64 106 -6 3896 -2 3918 3 16 5 38 18
47 31 16 20 18 75 18 750 l0 727 110 0 c130 0 193 -12 279 -53 80 -38 178
-132 216 -206 65 -129 60 -42 65 -1116 l5 -980 248 0 c241 0 247 0 248 20 4
107 0 1861 -5 1927 -7 102 -43 234 -91 335 -31 67 -103 182 -131 210 -7 7 -21
23 -31 35 -83 103 -256 219 -404 273 -174 62 23 58 -2658 59 l-2445 1 -30 -20z"/>
<path d="M1533 2870 c-178 -7 -166 18 -166 -327 0 -292 3 -311 44 -334 33 -17
3909 -16 3937 2 39 24 42 51 42 325 0 286 -5 318 -53 329 -28 7 -3641 12
-3804 5z"/>
<path d="M1444 1692 c-17 -2 -42 -14 -54 -27 -23 -24 -23 -27 -23 -298 0 -150
4 -283 7 -295 18 -55 -97 -52 2010 -52 l1944 0 32 26 31 26 -3 289 c-3 284 -3
289 -25 311 l-23 22 -1932 1 c-1063 0 -1947 -1 -1964 -3z"/>
</g>
</svg>
